<svg width="120" height="120" viewBox="0 0 120 120" fill="none" xmlns="http://www.w3.org/2000/svg">
<g clip-path="url(#clip0_171_2)">
<path d="M96 0H24C10.7452 0 0 10.7452 0 24V96C0 109.255 10.7452 120 24 120H96C109.255 120 120 109.255 120 96V24C120 10.7452 109.255 0 96 0Z" fill="white"/>
<path opacity="0.45" d="M24 90C27.2754 83.2371 32.3895 77.5336 38.7565 73.5429C45.1234 69.5522 52.4857 67.4355 60 67.4355C67.5143 67.4355 74.8766 69.5522 81.2435 73.5429C87.6105 77.5336 92.7246 83.2371 96 90" stroke="url(#paint0_linear_171_2)" stroke-width="8" stroke-linecap="round"/>
<path opacity="0.85" d="M32 90.0003C34.7673 84.9986 38.8239 80.8295 43.748 77.9264C48.672 75.0233 54.2838 73.4922 60 73.4922C65.7162 73.4922 71.328 75.0233 76.252 77.9264C81.1761 80.8295 85.2327 84.9986 88 90.0003" stroke="url(#paint1_linear_171_2)" stroke-width="8" stroke-linecap="round"/>
<path d="M36 90L64 24L92 90" stroke="url(#paint2_linear_171_2)" stroke-width="10" stroke-linecap="round" stroke-linejoin="round"/>
</g>
<defs>
<linearGradient id="paint0_linear_171_2" x1="24" y1="67.4355" x2="36.8783" y2="108.528" gradientUnits="userSpaceOnUse">
<stop stop-color="#2D83EC"/>
<stop offset="1" stop-color="#1AC9FF"/>
</linearGradient>
<linearGradient id="paint1_linear_171_2" x1="32" y1="73.4922" x2="40.9546" y2="103.869" gradientUnits="userSpaceOnUse">
<stop stop-color="#2D83EC"/>
<stop offset="1" stop-color="#1AC9FF"/>
</linearGradient>
<linearGradient id="paint2_linear_171_2" x1="36" y1="24" x2="101.119" y2="79.2525" gradientUnits="userSpaceOnUse">
<stop stop-color="#2D83EC"/>
<stop offset="1" stop-color="#1AC9FF"/>
</linearGradient>
<clipPath id="clip0_171_2">
<rect width="120" height="120" fill="white"/>
</clipPath>
</defs>
</svg>
